<svg xmlns="http://www.w3.org/2000/svg" xmlns:xlink="http://www.w3.org/1999/xlink" viewBox="0 0 46.53 30.22"><defs><style>.cls-1{isolation:isolate;}.cls-2{fill:url(#linear-gradient);}.cls-3{fill:url(#linear-gradient-2);}.cls-4{fill:url(#linear-gradient-3);}.cls-5{fill:url(#linear-gradient-4);}.cls-6{fill:url(#linear-gradient-5);}.cls-7{fill:url(#linear-gradient-6);}.cls-8{fill:url(#linear-gradient-7);}.cls-9{fill:url(#linear-gradient-8);}.cls-10{fill:url(#linear-gradient-9);}.cls-11{fill:url(#linear-gradient-10);}.cls-12{fill:url(#linear-gradient-11);}.cls-13{fill:url(#linear-gradient-12);}.cls-14{fill:url(#linear-gradient-13);}.cls-15{fill:url(#linear-gradient-14);}.cls-16{fill:url(#linear-gradient-15);}.cls-17{fill:url(#linear-gradient-16);}.cls-18{fill:url(#linear-gradient-17);}.cls-19{fill:url(#linear-gradient-18);}.cls-20{fill:url(#linear-gradient-19);}.cls-21{fill:url(#linear-gradient-20);}.cls-22{fill:url(#linear-gradient-21);}.cls-23{fill:url(#linear-gradient-22);}.cls-24{fill:url(#linear-gradient-23);}.cls-25{fill:url(#linear-gradient-24);}.cls-26{fill:url(#linear-gradient-25);}.cls-27{fill:url(#linear-gradient-26);}.cls-28{fill:url(#linear-gradient-27);}.cls-29{fill:url(#linear-gradient-28);}.cls-30{fill:#dbdbdb;mix-blend-mode:overlay;}.cls-31{font-size:9.37px;font-family:BodoniMTPosterCompressed, Bodoni MT;}</style><linearGradient id="linear-gradient" x1="31.32" y1="-14.67" x2="72.13" y2="-10.43" gradientTransform="translate(75.88 10.8) rotate(-175.64)" gradientUnits="userSpaceOnUse"><stop offset="0"/><stop offset="1" stop-color="#454545"/></linearGradient><linearGradient id="linear-gradient-2" x1="69.16" y1="-21.09" x2="68.68" y2="-12.38" gradientTransform="translate(75.88 10.8) rotate(-175.64)" gradientUnits="userSpaceOnUse"><stop offset="0" stop-color="#d9d9d9"/><stop offset="1" stop-color="#fff"/></linearGradient><linearGradient id="linear-gradient-3" x1="27.92" y1="-15.28" x2="33.01" y2="-4.99" xlink:href="#linear-gradient-2"/><linearGradient id="linear-gradient-4" x1="46.58" y1="-25.06" x2="47.67" y2="-12.34" xlink:href="#linear-gradient-2"/><linearGradient id="linear-gradient-5" x1="50.71" y1="28.43" x2="53.37" y2="-25.46" gradientTransform="translate(75.88 10.8) rotate(-175.64)" gradientUnits="userSpaceOnUse"><stop offset="0" stop-color="#454545"/><stop offset="1"/></linearGradient><linearGradient id="linear-gradient-6" x1="55.91" y1="2.42" x2="58.73" y2="9.42" gradientTransform="translate(75.88 10.8) rotate(-175.64)" gradientUnits="userSpaceOnUse"><stop offset="0" stop-color="#858585"/><stop offset="1" stop-color="#d9d9d9"/></linearGradient><linearGradient id="linear-gradient-7" x1="41.7" y1="-0.41" x2="35.34" y2="4.41" xlink:href="#linear-gradient-6"/><linearGradient id="linear-gradient-8" x1="69.24" y1="-3.97" x2="77.14" y2="-1.34" xlink:href="#linear-gradient-6"/><linearGradient id="linear-gradient-9" x1="40.85" y1="-5.07" x2="28.68" y2="-8.43" xlink:href="#linear-gradient-6"/><linearGradient id="linear-gradient-10" x1="48.12" y1="-12.89" x2="47.3" y2="-20.7" xlink:href="#linear-gradient-6"/><linearGradient id="linear-gradient-11" x1="65.15" y1="-10.93" x2="70.5" y2="-16.66" xlink:href="#linear-gradient-6"/><linearGradient id="linear-gradient-12" x1="54.16" y1="13.97" x2="49.8" y2="-32.66" xlink:href="#linear-gradient-5"/><linearGradient id="linear-gradient-13" x1="45.06" y1="17.32" x2="45.3" y2="-19.73" xlink:href="#linear-gradient-6"/><linearGradient id="linear-gradient-14" x1="37.78" y1="17.28" x2="38.02" y2="-19.78" xlink:href="#linear-gradient-6"/><linearGradient id="linear-gradient-15" x1="68.17" y1="17.47" x2="68.41" y2="-19.58" xlink:href="#linear-gradient-6"/><linearGradient id="linear-gradient-16" x1="62.39" y1="17.43" x2="62.63" y2="-19.62" xlink:href="#linear-gradient-6"/><linearGradient id="linear-gradient-17" x1="56.04" y1="17.4" x2="56.28" y2="-19.67" xlink:href="#linear-gradient-6"/><linearGradient id="linear-gradient-18" x1="64.55" y1="17.45" x2="64.79" y2="-19.61" xlink:href="#linear-gradient-6"/><linearGradient id="linear-gradient-19" x1="35.48" y1="17.26" x2="35.72" y2="-19.8" xlink:href="#linear-gradient-6"/><linearGradient id="linear-gradient-20" x1="39.46" y1="17.29" x2="39.71" y2="-19.77" xlink:href="#linear-gradient-6"/><linearGradient id="linear-gradient-21" x1="51.88" y1="17.37" x2="52.13" y2="-19.69" xlink:href="#linear-gradient-6"/><linearGradient id="linear-gradient-22" x1="42.57" y1="17.31" x2="42.81" y2="-19.75" xlink:href="#linear-gradient-6"/><linearGradient id="linear-gradient-23" x1="69.03" y1="17.48" x2="69.27" y2="-19.58" xlink:href="#linear-gradient-6"/><linearGradient id="linear-gradient-24" x1="66.98" y1="17.47" x2="67.23" y2="-19.59" xlink:href="#linear-gradient-6"/><linearGradient id="linear-gradient-25" x1="58.79" y1="17.42" x2="59.03" y2="-19.65" xlink:href="#linear-gradient-6"/><linearGradient id="linear-gradient-26" x1="49.03" y1="17.35" x2="49.27" y2="-19.71" xlink:href="#linear-gradient-6"/><linearGradient id="linear-gradient-27" x1="36.08" y1="17.26" x2="36.32" y2="-19.79" xlink:href="#linear-gradient-6"/><linearGradient id="linear-gradient-28" x1="50.72" y1="5.72" x2="53.95" y2="-15.68" xlink:href="#linear-gradient-6"/></defs><g class="cls-1"><g id="Layer_2" data-name="Layer 2"><g id="Layer_1-2" data-name="Layer 1"><path class="cls-2" d="M2.58,17.45l-.13-.14c-.09-.1-.19-.2-.27-.3l-.13-.13-.29-.36-.06-.07c-.11-.14-.22-.29-.32-.44l-.06-.08c-.08-.12-.16-.24-.23-.36S1,15.48,1,15.43s-.12-.2-.17-.3L.75,15,.6,14.64l-.06-.13C.48,14.36.41,14.2.36,14s-.1-.33-.14-.49l0-.12c0-.13-.06-.26-.08-.39l0-.14c0-.17,0-.35-.06-.53S0,12.1,0,12C0,14,0,16.11,0,18.19c0,.13,0,.27,0,.4H0l.06.54a.09.09,0,0,1,0,.05.29.29,0,0,0,0,.09c0,.12,0,.24.07.37s0,.06,0,.09,0,0,0,.06.08.29.13.44v.05c0,.15.11.3.17.45a.08.08,0,0,0,0,0,.61.61,0,0,0,0,.12c0,.1.09.2.14.3a.59.59,0,0,1,0,.08.41.41,0,0,0,0,.09l.16.28.06.11,0,.06c.06.11.14.22.21.33l.06.08v0c.1.14.2.29.31.43l0,0,.08.09c.08.11.17.21.26.32l0,0,.09.09c.08.1.17.19.26.29l.08.08a.46.46,0,0,1,.07.07l.32.3.09.09,0,0,.45.39.07.06.13.11.38.29.07.06.14.1.4.29.13.09.09.06c.19.13.39.25.59.37l.07,0h0l.77.44.09.06.12.06c.28.15.56.29.86.43l0,0h0l.68.31h0l.51.22.18.08.27.1.53.21L9.9,28l.12.05.15.05,1.18.39.12,0,.07,0,.22.06.65.19.3.08L13,29l.22.05.56.13.48.11.55.12.32.06.38.07,1,.18.24,0,.71.1h.05c.51.07,1,.12,1.55.17l.17,0,.23,0,.55,0,.3,0h.24l.4,0,.26,0h.38l.31,0h2.45l.78,0,.48,0H26l.83-.06.66-.06h.19l.88-.09.67-.09.13,0h.08l.89-.13.71-.13.24,0,.48-.1.34-.06.07,0,.59-.13.26-.06h0l.85-.21h0l.88-.25h0l.41-.13.47-.14h0l.75-.26.13-.05h0l.89-.34h0l.15-.07.72-.3.08,0,.2-.09.65-.31.16-.07.12-.07c.33-.16.64-.33,1-.51h0l.23-.14.45-.27.25-.16.33-.22.07-.05.18-.13.39-.28.21-.16.35-.29.18-.15c.17-.15.34-.3.49-.45a11,11,0,0,0,1.47-1.7,8.13,8.13,0,0,0,.93-1.8,6.27,6.27,0,0,0,.4-2.19c0-2.07,0-4.15,0-6.22a6.49,6.49,0,0,1-.4,2.18A8.34,8.34,0,0,1,45.2,16a10.53,10.53,0,0,1-1.47,1.7c-.16.16-.32.31-.49.45l-.17.14-.37.31-.19.15-.41.29-.17.13-.42.27-.23.15-.53.33-.14.08,0,0-.93.5-.28.14-.65.3-.28.13c-.24.11-.47.21-.71.3l-.19.08-.87.33L36.2,22l-.46.15-.49.16-.41.12c-.6.18-1.21.34-1.83.49l-.22,0-.72.16-.32.07-.73.14c-.55.1-1.11.19-1.67.27h-.13c-.54.08-1.08.14-1.64.2h-.11q-.82.07-1.65.12h-.16c-.57,0-1.14.05-1.72.06H22.88l-.94,0h-.29l-.66,0-.39,0-.55,0-.54,0-.4,0q-.78-.08-1.56-.18l-.64-.09-.36-.05-1-.17-.68-.13L14.28,23l-.47-.1-.56-.13-.37-.1c-.47-.12-.92-.24-1.36-.38l-.14,0c-.41-.13-.81-.26-1.2-.4l-.27-.09-.27-.1-.51-.2-.29-.11-.68-.29h0c-.24-.1-.47-.21-.69-.32l0,0c-.3-.14-.6-.3-.89-.45l-.19-.11c-.27-.14-.53-.29-.78-.44l-.09-.06-.59-.38-.21-.14-.41-.3-.21-.15-.38-.3-.2-.16a5.82,5.82,0,0,1-.45-.4l-.12-.11Z"/><path class="cls-3" d="M7.43,20.76c-.3-.14-.6-.3-.89-.45l-.19-.11c-.27-.14-.53-.29-.78-.44l-.09-.06-.59-.38-.21-.14-.41-.3-.21-.15-.38-.3-.2-.16v6.22l.07.06.13.11.38.29.07.06.14.1.4.29.13.09.09.06c.19.13.39.25.59.37l.07,0h0l.77.44.09.06.12.06c.28.15.56.29.86.43l0,0h0l.68.31V21.1c-.24-.1-.47-.21-.69-.32Z"/><path class="cls-4" d="M45.19,22.24a8.13,8.13,0,0,0,.93-1.8V14.21A8.34,8.34,0,0,1,45.2,16a10.53,10.53,0,0,1-1.47,1.7v6.23A11,11,0,0,0,45.19,22.24Z"/><path class="cls-5" d="M27.58,23.79h-.11q-.82.07-1.65.12h-.16c-.57,0-1.14.05-1.72.06v6.22h.46l.78,0,.48,0H26l.83-.06.66-.06h.19l.88-.09.67-.09.13,0h.08l.89-.13.71-.13V23.31c-.55.1-1.11.19-1.67.27h-.13C28.68,23.67,28.14,23.73,27.58,23.79Z"/><path class="cls-6" d="M3.48,18.27A19.69,19.69,0,0,0,8.16,21.1a33.31,33.31,0,0,0,7.38,2.2,43.24,43.24,0,0,0,8.4.69A42.6,42.6,0,0,0,31,23.31c5.32-1,9.92-2.92,12.71-5.59A10.59,10.59,0,0,0,45.2,16a7.92,7.92,0,0,0,.93-1.8c1.09-3-.11-6-3.07-8.49a19.9,19.9,0,0,0-4.68-2.83A33.47,33.47,0,0,0,31,.69,44.93,44.93,0,0,0,22.6,0a43.93,43.93,0,0,0-7.09.68c-5.32,1-9.92,2.92-12.71,5.6A11.46,11.46,0,0,0,1.34,8,8.18,8.18,0,0,0,.4,9.78C-.68,12.77.52,15.79,3.48,18.27Z"/><path class="cls-7" d="M17.29,3.29a32.2,32.2,0,0,1,5.46-.52q.42,0,.84,0L22.6,0a42.84,42.84,0,0,0-7.09.67l1,2.76Z"/><path class="cls-8" d="M38.5,7.17a5.14,5.14,0,0,1,.42.38l4.14-1.82a19.58,19.58,0,0,0-4.68-2.84L34.24,4.71l.65.28A15.16,15.16,0,0,1,38.5,7.17Z"/><path class="cls-9" d="M5.54,10.72c0-.14.08-.28.13-.43a6.52,6.52,0,0,1,.72-1.38A8.1,8.1,0,0,1,7.52,7.6a5.14,5.14,0,0,1,.42-.38L2.8,6.28A11.46,11.46,0,0,0,1.34,8,8.18,8.18,0,0,0,.4,9.78Z"/><path class="cls-10" d="M40.86,13.7a5.54,5.54,0,0,1-.72,1.38A8.53,8.53,0,0,1,39,16.4l-.42.37,5.13.94A10.53,10.53,0,0,0,45.2,16a8.34,8.34,0,0,0,.93-1.8L41,13.27C41,13.41,40.91,13.56,40.86,13.7Z"/><path class="cls-11" d="M31,23.31l-1-2.76-.79.15a32.2,32.2,0,0,1-5.46.52h-.84l1,2.76A43.8,43.8,0,0,0,31,23.31Z"/><path class="cls-12" d="M8.16,21.1l4.14-1.82L11.64,19A15.16,15.16,0,0,1,8,16.82c-.14-.12-.29-.25-.42-.38L3.48,18.27A19.69,19.69,0,0,0,8.16,21.1Z"/><path class="cls-13" d="M7.61,16.44c.13.13.28.26.42.38A15.16,15.16,0,0,0,11.64,19l.66.28a26.2,26.2,0,0,0,5,1.41,33.22,33.22,0,0,0,5.62.54h.84a32.2,32.2,0,0,0,5.46-.52l.79-.15a19.4,19.4,0,0,0,8.57-3.78L39,16.4a8.53,8.53,0,0,0,1.12-1.32,5.54,5.54,0,0,0,.72-1.38c0-.14.1-.29.14-.43.54-2-.24-4-2.08-5.72a5.14,5.14,0,0,0-.42-.38A15.16,15.16,0,0,0,34.89,5l-.65-.28a26.4,26.4,0,0,0-5-1.41,33.42,33.42,0,0,0-5.63-.53q-.42,0-.84,0a32.2,32.2,0,0,0-5.46.52l-.78.15A19.46,19.46,0,0,0,7.94,7.22a5.14,5.14,0,0,0-.42.38A8.1,8.1,0,0,0,6.39,8.91a6.52,6.52,0,0,0-.72,1.38c0,.15-.09.29-.13.43C5,12.73,5.78,14.73,7.61,16.44Z"/><path class="cls-14" d="M31.77,19.6a.64.64,0,0,0-.52-.08c-.78.22-1.6.41-2.44.56l-.77.13a.42.42,0,0,0-.25.12.11.11,0,0,0,0,.13c.05.1.27.16.47.13l.81-.14a24.19,24.19,0,0,0,2.54-.58.27.27,0,0,0,.18-.11.11.11,0,0,0,0-.16"/><path class="cls-15" d="M37.57,6.91a.68.68,0,0,0-.53,0,.36.36,0,0,0-.15.1c0,.06,0,.12,0,.18l.47.37a9,9,0,0,1,1.19,1.2.58.58,0,0,0,.5.11.35.35,0,0,0,.22-.12.11.11,0,0,0,0-.14,9.22,9.22,0,0,0-1.25-1.25c-.15-.14-.32-.27-.49-.4"/><path class="cls-16" d="M7.22,15.42a.56.56,0,0,0,.5.11.33.33,0,0,0,.21-.12.12.12,0,0,0,0-.14,6.06,6.06,0,0,1-1-1.72c0-.1-.24-.18-.45-.15a.41.41,0,0,0-.29.12.11.11,0,0,0,0,.11,6.08,6.08,0,0,0,1,1.79"/><path class="cls-17" d="M11.91,5.45a.64.64,0,0,0,.54,0,21.78,21.78,0,0,1,2.86-1,.31.31,0,0,0,.17-.1.11.11,0,0,0,0-.16.57.57,0,0,0-.52-.08,21,21,0,0,0-3,1.06.24.24,0,0,0-.11.08c-.05.06,0,.14.07.19"/><path class="cls-18" d="M18,3.65a.51.51,0,0,0,.47.13,31.45,31.45,0,0,1,3.42-.33.46.46,0,0,0,.33-.13.24.24,0,0,0,0-.08c0-.11-.2-.19-.42-.18a32,32,0,0,0-3.57.34.42.42,0,0,0-.25.12.12.12,0,0,0,0,.13"/><path class="cls-19" d="M11.32,18.5a.68.68,0,0,0,.54,0,.29.29,0,0,0,.08-.07c.05-.07,0-.15-.09-.21a13.52,13.52,0,0,1-2.26-1.36.62.62,0,0,0-.54-.05.28.28,0,0,0-.14.09.12.12,0,0,0,.05.18,15.05,15.05,0,0,0,2.36,1.43"/><path class="cls-20" d="M40.35,10.36c0-.11-.24-.18-.44-.16a.36.36,0,0,0-.29.13.12.12,0,0,0,0,.1,4.56,4.56,0,0,1,.29,1.78c0,.11.16.21.37.21a.49.49,0,0,0,.37-.13.14.14,0,0,0,0-.06,4.62,4.62,0,0,0-.3-1.87"/><path class="cls-21" d="M37,17.17a.64.64,0,0,0-.53,0,15.41,15.41,0,0,1-2.39,1.3.24.24,0,0,0-.11.08c0,.07,0,.14.07.2a.67.67,0,0,0,.54,0,16,16,0,0,0,2.5-1.36l0-.05c.06-.08,0-.17-.13-.23"/><path class="cls-22" d="M25,20.72c0-.11-.2-.19-.41-.18l-.88,0c-.86,0-1.73,0-2.59-.07a.49.49,0,0,0-.42.13s0,0,0,0,.12.2.33.22c.91.06,1.81.08,2.71.07l.92,0a.44.44,0,0,0,.33-.13.1.1,0,0,0,0-.09"/><path class="cls-23" d="M32.32,4.35a.63.63,0,0,0-.53.06l0,0c-.06.09,0,.19.16.24a19.08,19.08,0,0,1,2.14.8l.62.28a.64.64,0,0,0,.54,0,.19.19,0,0,0,.08-.07c.05-.07,0-.16-.1-.21l-.64-.3a20.13,20.13,0,0,0-2.24-.84"/><path class="cls-24" d="M5.89,11.76c0,.11.16.2.37.2a.46.46,0,0,0,.37-.13.14.14,0,0,0,0-.06,4.34,4.34,0,0,1,.28-1.35A3.2,3.2,0,0,1,7.1,10c.05-.1-.08-.21-.28-.24a.52.52,0,0,0-.45.13v0c-.07.15-.13.29-.19.44a4.77,4.77,0,0,0-.28,1.42"/><path class="cls-25" d="M7.74,8.4a.63.63,0,0,0,.52-.1l.38-.39a10.22,10.22,0,0,1,1.42-1.13l.06-.06c.05-.08,0-.17-.13-.22a.63.63,0,0,0-.54,0A11.11,11.11,0,0,0,8,7.72l-.41.41v0c-.07.1,0,.2.19.25"/><path class="cls-26" d="M14.21,19.64a26.25,26.25,0,0,0,3.28.8h0a.49.49,0,0,0,.48-.12c.07-.1,0-.21-.23-.25h0a24.87,24.87,0,0,1-3.14-.77.58.58,0,0,0-.52.07l0,0c-.06.09,0,.19.17.24"/><path class="cls-27" d="M25.07,3.27c0,.11.12.21.33.23a27.61,27.61,0,0,1,3.38.42.56.56,0,0,0,.49-.12c.07-.11,0-.22-.24-.26A32.41,32.41,0,0,0,25.5,3.1a.52.52,0,0,0-.41.13s0,0,0,0"/><path class="cls-28" d="M40.18,14.08c.06-.1-.07-.21-.28-.24a.54.54,0,0,0-.45.13v0a5.12,5.12,0,0,1-.5.87,6.32,6.32,0,0,1-.65.82v0c-.07.09,0,.2.19.24a.57.57,0,0,0,.51-.09,7.45,7.45,0,0,0,.68-.85,6.12,6.12,0,0,0,.52-.92"/><path class="cls-29" d="M38.43,14.77a7.36,7.36,0,0,1-1,1.18c-1.93,1.85-5.11,3.2-8.79,3.87a31,31,0,0,1-4.9.47,30.79,30.79,0,0,1-5.81-.48,22.72,22.72,0,0,1-5.1-1.52,13.39,13.39,0,0,1-3.24-2c-2-1.71-2.87-3.8-2.12-5.86a5.16,5.16,0,0,1,.65-1.25A7.82,7.82,0,0,1,9.12,8c1.93-1.85,5.11-3.2,8.78-3.86a29,29,0,0,1,4.9-.47,30.07,30.07,0,0,1,5.82.47A22.47,22.47,0,0,1,33.71,5.7a13.72,13.72,0,0,1,3.24,2c2,1.72,2.88,3.8,2.13,5.87A5.69,5.69,0,0,1,38.43,14.77Z"/><path class="cls-30" d="M0,12.37s0,.21.1.62a7.72,7.72,0,0,0,.54,1.66,9.69,9.69,0,0,0,1.53,2.23,15.32,15.32,0,0,0,2.7,2.25,20.84,20.84,0,0,0,3.68,1.92c.7.27,1.41.57,2.15.78.37.12.74.25,1.12.35l1.16.31.59.15.6.13,1.22.25c.81.14,1.66.27,2.5.38l1.26.13.64.06.64,0,1.29.06c.43,0,.86,0,1.3,0,.86,0,1.71,0,2.58,0,.43,0,.86-.06,1.28-.09l.64,0,.63-.07a40.39,40.39,0,0,0,4.92-.83l1.16-.3.57-.15.56-.18,1.1-.35c.36-.12.71-.26,1.05-.39.7-.25,1.34-.57,2-.86.32-.14.61-.32.9-.48l.86-.49A16.1,16.1,0,0,0,44,17.25a9.75,9.75,0,0,0,1.65-2.15l.42-.91c.09-.28.18-.51.23-.71l.14-.61-.11.62c0,.2-.12.44-.19.72s-.24.59-.4.95a9.93,9.93,0,0,1-1.59,2.23A12.62,12.62,0,0,1,43,18.56a7.09,7.09,0,0,1-.73.57l-.78.56-.86.51c-.3.17-.59.36-.91.51-.64.31-1.29.65-2,.92-.35.14-.7.29-1.06.42l-1.11.38-.56.19-.58.16-1.18.31a42.33,42.33,0,0,1-5,.88l-.64.07-.65.06-1.3.09c-.86,0-1.73.08-2.61.06-.43,0-.87,0-1.31,0l-1.3-.08-.65,0L19.12,24l-1.29-.14c-.85-.12-1.68-.25-2.51-.4l-1.23-.26-.61-.13L12.89,23l-1.18-.32c-.39-.11-.76-.25-1.14-.38-.76-.24-1.46-.54-2.14-.83a21.78,21.78,0,0,1-3.72-2A14.28,14.28,0,0,1,2,17,10,10,0,0,1,.56,14.69,7.31,7.31,0,0,1,.09,13Z"/><text class="cls-31" transform="matrix(1.28, 0.1, -0.08, 1, 19.54, 15.04)">1</text></g></g></g></svg>