<svg xmlns="http://www.w3.org/2000/svg" xmlns:xlink="http://www.w3.org/1999/xlink" viewBox="0 0 46.57 30.22"><defs><style>.cls-1{isolation:isolate;}.cls-2{fill:url(#linear-gradient);}.cls-3{fill:url(#linear-gradient-2);}.cls-4{fill:url(#linear-gradient-3);}.cls-5{fill:url(#linear-gradient-4);}.cls-6{fill:url(#linear-gradient-5);}.cls-7{fill:url(#linear-gradient-6);}.cls-8{fill:url(#linear-gradient-7);}.cls-9{fill:url(#linear-gradient-8);}.cls-10{fill:url(#linear-gradient-9);}.cls-11{fill:url(#linear-gradient-10);}.cls-12{fill:url(#linear-gradient-11);}.cls-13{fill:url(#linear-gradient-12);}.cls-14{fill:url(#linear-gradient-13);}.cls-15{fill:url(#linear-gradient-14);}.cls-16{fill:url(#linear-gradient-15);}.cls-17{fill:url(#linear-gradient-16);}.cls-18{fill:url(#linear-gradient-17);}.cls-19{fill:url(#linear-gradient-18);}.cls-20{fill:url(#linear-gradient-19);}.cls-21{fill:url(#linear-gradient-20);}.cls-22{fill:url(#linear-gradient-21);}.cls-23{fill:url(#linear-gradient-22);}.cls-24{fill:url(#linear-gradient-23);}.cls-25{fill:url(#linear-gradient-24);}.cls-26{fill:url(#linear-gradient-25);}.cls-27{fill:url(#linear-gradient-26);}.cls-28{fill:url(#linear-gradient-27);}.cls-29{fill:url(#linear-gradient-28);}.cls-30{fill:#dbdbdb;mix-blend-mode:overlay;}.cls-31{font-size:9.72px;font-family:BodoniMTPosterCompressed, Bodoni MT;}</style><linearGradient id="linear-gradient" x1="31.24" y1="-14.55" x2="72.05" y2="-10.31" gradientTransform="translate(75.77 10.41) rotate(-176.18)" gradientUnits="userSpaceOnUse"><stop offset="0" stop-color="#0c3600"/><stop offset="1" stop-color="#3e8a00"/></linearGradient><linearGradient id="linear-gradient-2" x1="69.09" y1="-20.98" x2="68.6" y2="-12.26" gradientTransform="translate(75.77 10.41) rotate(-176.18)" gradientUnits="userSpaceOnUse"><stop offset="0" stop-color="#d9d9d9"/><stop offset="1" stop-color="#fff"/></linearGradient><linearGradient id="linear-gradient-3" x1="27.84" y1="-15.16" x2="32.93" y2="-4.87" xlink:href="#linear-gradient-2"/><linearGradient id="linear-gradient-4" x1="46.5" y1="-24.94" x2="47.59" y2="-12.23" xlink:href="#linear-gradient-2"/><linearGradient id="linear-gradient-5" x1="50.63" y1="28.55" x2="53.29" y2="-25.34" xlink:href="#linear-gradient"/><linearGradient id="linear-gradient-6" x1="55.84" y1="2.54" x2="58.65" y2="9.53" gradientTransform="translate(75.77 10.41) rotate(-176.18)" gradientUnits="userSpaceOnUse"><stop offset="0" stop-color="#858585"/><stop offset="1" stop-color="#d9d9d9"/></linearGradient><linearGradient id="linear-gradient-7" x1="41.62" y1="-0.29" x2="35.27" y2="4.52" xlink:href="#linear-gradient-6"/><linearGradient id="linear-gradient-8" x1="69.16" y1="-3.86" x2="77.07" y2="-1.22" xlink:href="#linear-gradient-6"/><linearGradient id="linear-gradient-9" x1="40.78" y1="-4.96" x2="28.61" y2="-8.32" xlink:href="#linear-gradient-6"/><linearGradient id="linear-gradient-10" x1="48.04" y1="-12.77" x2="47.23" y2="-20.58" xlink:href="#linear-gradient-6"/><linearGradient id="linear-gradient-11" x1="65.07" y1="-10.82" x2="70.43" y2="-16.54" xlink:href="#linear-gradient-6"/><linearGradient id="linear-gradient-12" x1="54.08" y1="14.09" x2="49.72" y2="-32.54" xlink:href="#linear-gradient"/><linearGradient id="linear-gradient-13" x1="44.98" y1="17.44" x2="45.22" y2="-19.62" xlink:href="#linear-gradient-6"/><linearGradient id="linear-gradient-14" x1="37.7" y1="17.39" x2="37.94" y2="-19.67" xlink:href="#linear-gradient-6"/><linearGradient id="linear-gradient-15" x1="68.09" y1="17.59" x2="68.33" y2="-19.47" xlink:href="#linear-gradient-6"/><linearGradient id="linear-gradient-16" x1="62.31" y1="17.55" x2="62.55" y2="-19.5" xlink:href="#linear-gradient-6"/><linearGradient id="linear-gradient-17" x1="55.96" y1="17.51" x2="56.2" y2="-19.55" xlink:href="#linear-gradient-6"/><linearGradient id="linear-gradient-18" x1="64.47" y1="17.57" x2="64.72" y2="-19.49" xlink:href="#linear-gradient-6"/><linearGradient id="linear-gradient-19" x1="35.4" y1="17.38" x2="35.64" y2="-19.68" xlink:href="#linear-gradient-6"/><linearGradient id="linear-gradient-20" x1="39.39" y1="17.4" x2="39.63" y2="-19.66" xlink:href="#linear-gradient-6"/><linearGradient id="linear-gradient-21" x1="51.81" y1="17.49" x2="52.05" y2="-19.58" xlink:href="#linear-gradient-6"/><linearGradient id="linear-gradient-22" x1="42.49" y1="17.42" x2="42.73" y2="-19.64" xlink:href="#linear-gradient-6"/><linearGradient id="linear-gradient-23" x1="68.95" y1="17.6" x2="69.19" y2="-19.46" xlink:href="#linear-gradient-6"/><linearGradient id="linear-gradient-24" x1="66.91" y1="17.58" x2="67.15" y2="-19.48" xlink:href="#linear-gradient-6"/><linearGradient id="linear-gradient-25" x1="58.71" y1="17.53" x2="58.95" y2="-19.53" xlink:href="#linear-gradient-6"/><linearGradient id="linear-gradient-26" x1="48.95" y1="17.46" x2="49.19" y2="-19.59" xlink:href="#linear-gradient-6"/><linearGradient id="linear-gradient-27" x1="36" y1="17.38" x2="36.24" y2="-19.68" xlink:href="#linear-gradient-6"/><linearGradient id="linear-gradient-28" x1="50.64" y1="5.84" x2="53.88" y2="-15.56" xlink:href="#linear-gradient-6"/></defs><g class="cls-1"><g id="Layer_2" data-name="Layer 2"><g id="Layer_1-2" data-name="Layer 1"><path class="cls-2" d="M2.63,17.64l-.14-.13-.28-.29-.12-.14-.3-.35-.06-.07c-.11-.15-.22-.29-.32-.44l-.06-.08-.24-.36L1,15.65l-.17-.31-.09-.16-.16-.33a.61.61,0,0,0,0-.12c-.07-.16-.13-.31-.19-.47s-.1-.32-.15-.49l0-.12c0-.13-.06-.26-.08-.39l0-.13A5,5,0,0,1,0,12.59c0-.13,0-.27,0-.4,0,2.07,0,4.15.05,6.22,0,.14,0,.27,0,.41h0a4.78,4.78,0,0,0,.06.53.11.11,0,0,1,0,0,.29.29,0,0,0,0,.09c0,.12,0,.24.08.37a.44.44,0,0,0,0,.1l0,.05a3.66,3.66,0,0,0,.13.44v.05c0,.15.11.3.17.44l0,0,.06.11c0,.1.09.2.14.3a.59.59,0,0,0,0,.08.41.41,0,0,0,.05.09c0,.09.1.19.16.28l.06.11a.21.21,0,0,1,0,.06l.22.33.05.08,0,0c.1.14.2.28.32.42v0l.08.09.27.31,0,.05.09.09a3.58,3.58,0,0,0,.27.29l.07.08a.23.23,0,0,1,.07.07l.32.3.09.08,0,0,.45.39.07.06.14.11.37.29.08.06.14.09.4.28.13.1.1.06.58.36.08.05h0c.24.15.5.29.77.44l.09.05.12.06c.28.15.57.29.86.43l0,0h0l.69.31h0l.51.21.18.07.27.11.53.2.26.09.13.05.15,0,1.17.38.13,0,.07,0,.22.06.65.18.3.08.31.08.23.05.55.12.48.11.56.11.31.06.38.07,1,.16.24,0,.71.1h.05c.52.07,1,.12,1.55.16l.17,0,.24,0,.54,0,.3,0h.24l.4,0h2.94l.46,0,.79,0,.47,0h.33l.83-.06.66-.07h.19l.88-.1.67-.1h.13l.08,0,.89-.14.7-.13.25-.05.47-.1.34-.07h.08l.59-.14.25-.06h0l.86-.22h0l.88-.26h0l.4-.13.47-.15h0l.74-.27.14,0h0l.89-.35h0l.15-.07.71-.31.09,0,.19-.1.65-.31.16-.08.12-.06c.33-.17.64-.34,1-.52h0l.22-.13.45-.28a2.2,2.2,0,0,0,.25-.17l.33-.22.06,0,.18-.14a4,4,0,0,0,.39-.29l.21-.16.35-.29.18-.15.49-.46A10.37,10.37,0,0,0,45.27,22a7.73,7.73,0,0,0,.92-1.81A6.48,6.48,0,0,0,46.57,18c0-2.07,0-4.15,0-6.22A6.46,6.46,0,0,1,46.14,14a7.88,7.88,0,0,1-.91,1.81,11.51,11.51,0,0,1-1.45,1.72l-.49.45-.17.15-.37.3-.19.15-.4.3L42,19l-.42.28-.22.15-.54.33-.13.09-.06,0c-.29.17-.6.34-.92.5a2.44,2.44,0,0,1-.28.14l-.65.32L38.5,21l-.72.31-.18.08c-.29.11-.58.23-.87.33l-.45.16-.45.16-.5.16-.4.13c-.59.18-1.2.35-1.83.5l-.22.05-.71.17-.32.07-.73.15c-.55.1-1.11.2-1.67.28l-.13,0c-.54.08-1.08.15-1.63.21h-.12l-1.65.14h-.15c-.57,0-1.15.06-1.73.07H21.76l-.66,0-.39,0-.55,0-.54,0-.41,0-1.55-.16L17,23.58l-.36,0-1-.16L15,23.25l-.59-.12-.46-.1-.56-.13L13,22.81c-.46-.11-.92-.24-1.36-.36l-.15-.05L10.27,22,10,21.93l-.27-.1-.51-.19-.29-.12-.68-.28h0l-.7-.31h0l-.9-.45-.19-.1-.78-.44-.1-.06L5,19.5l-.21-.15-.42-.28-.21-.16c-.13-.09-.25-.19-.37-.29l-.21-.16-.45-.39L3,18C2.84,17.85,2.73,17.75,2.63,17.64Z"/><path class="cls-3" d="M7.51,20.92l-.9-.45-.19-.1-.78-.44-.1-.06L5,19.5l-.21-.15-.42-.28-.21-.16c-.13-.09-.25-.19-.37-.29l-.21-.16.05,6.22.07.06.14.11.37.29.08.06.14.09.4.28.13.1.1.06.58.36.08.05h0c.24.15.5.29.77.44l.09.05.12.06c.28.15.57.29.86.43l0,0h0l.69.31,0-6.23-.7-.31Z"/><path class="cls-4" d="M45.27,22a7.73,7.73,0,0,0,.92-1.81l0-6.23a7.88,7.88,0,0,1-.91,1.81,11.51,11.51,0,0,1-1.45,1.72l0,6.22A10.37,10.37,0,0,0,45.27,22Z"/><path class="cls-5" d="M27.69,23.75h-.12l-1.65.14h-.15c-.57,0-1.15.06-1.73.07l.05,6.23.46,0,.79,0,.47,0h.33l.83-.06.66-.07h.19l.88-.1.67-.1h.13l.08,0,.89-.14.7-.13-.05-6.22c-.55.1-1.11.2-1.67.28l-.13,0C28.78,23.62,28.24,23.69,27.69,23.75Z"/><path class="cls-6" d="M3.53,18.45a19.55,19.55,0,0,0,4.71,2.8,33.12,33.12,0,0,0,7.39,2.12A43.42,43.42,0,0,0,24,24a41.49,41.49,0,0,0,7.08-.75c5.31-1,9.89-3,12.66-5.71a10.43,10.43,0,0,0,1.44-1.72A7.54,7.54,0,0,0,46.14,14C47.2,11,46,8,43,5.54a19.41,19.41,0,0,0-4.71-2.79A33.81,33.81,0,0,0,30.89.62,44.27,44.27,0,0,0,22.47,0a42.53,42.53,0,0,0-7.08.75c-5.31,1-9.89,3-12.65,5.72A11,11,0,0,0,1.29,8.19,8.59,8.59,0,0,0,.37,10C-.68,13,.54,16,3.53,18.45Z"/><path class="cls-7" d="M17.2,3.35a33.19,33.19,0,0,1,5.45-.58h.85L22.47,0a43.73,43.73,0,0,0-7.08.75l1,2.75Z"/><path class="cls-8" d="M38.44,7l.43.37L43,5.54a19.41,19.41,0,0,0-4.71-2.79L34.16,4.61l.66.27A14.87,14.87,0,0,1,38.44,7Z"/><path class="cls-9" d="M5.52,10.89a4.14,4.14,0,0,1,.13-.43,6,6,0,0,1,.7-1.39A8,8,0,0,1,7.47,7.75l.41-.38L2.74,6.48A11,11,0,0,0,1.29,8.19,8.59,8.59,0,0,0,.37,10Z"/><path class="cls-10" d="M40.87,13.53a5.9,5.9,0,0,1-.71,1.39,8.08,8.08,0,0,1-1.11,1.33l-.41.38,5.14.89a11.51,11.51,0,0,0,1.45-1.72A7.88,7.88,0,0,0,46.14,14L41,13.1C41,13.25,40.92,13.39,40.87,13.53Z"/><path class="cls-11" d="M31.12,23.24l-1-2.75-.79.16a33,33,0,0,1-5.45.57H23L24,24A42.54,42.54,0,0,0,31.12,23.24Z"/><path class="cls-12" d="M8.24,21.24l4.12-1.86c-.23-.08-.44-.17-.66-.27A15.12,15.12,0,0,1,8.07,17l-.43-.37L3.53,18.46A19.53,19.53,0,0,0,8.24,21.24Z"/><path class="cls-13" d="M7.64,16.6l.43.37a15.12,15.12,0,0,0,3.63,2.14c.22.1.43.19.66.27a25.85,25.85,0,0,0,5,1.37,33.35,33.35,0,0,0,5.63.48h.84a33,33,0,0,0,5.45-.57l.79-.16a19.49,19.49,0,0,0,8.54-3.86l.41-.38a8.08,8.08,0,0,0,1.11-1.33,5.9,5.9,0,0,0,.71-1.39c.05-.14.09-.28.13-.43.52-2-.28-4-2.13-5.7L38.44,7a14.87,14.87,0,0,0-3.62-2.15l-.66-.27a26.58,26.58,0,0,0-5-1.37,34.51,34.51,0,0,0-5.63-.48h-.85a33.19,33.19,0,0,0-5.45.58l-.79.16A19.5,19.5,0,0,0,7.88,7.37l-.41.38A8,8,0,0,0,6.35,9.07a6,6,0,0,0-.7,1.39,4.14,4.14,0,0,0-.13.43C5,12.91,5.79,14.9,7.64,16.6Z"/><path class="cls-14" d="M31.83,19.52a.61.61,0,0,0-.52-.07c-.78.22-1.59.42-2.43.58l-.77.14a.37.37,0,0,0-.25.12.09.09,0,0,0,0,.12.46.46,0,0,0,.47.13l.81-.14c.88-.17,1.72-.37,2.54-.61a.33.33,0,0,0,.18-.11.13.13,0,0,0,0-.16"/><path class="cls-15" d="M37.51,6.78a.64.64,0,0,0-.53,0,.36.36,0,0,0-.15.1.14.14,0,0,0,.05.18c.17.12.33.24.48.37a9,9,0,0,1,1.2,1.19.57.57,0,0,0,.5.1.35.35,0,0,0,.22-.12.11.11,0,0,0,0-.14A9.26,9.26,0,0,0,38,7.17l-.5-.39"/><path class="cls-16" d="M7.24,15.58a.57.57,0,0,0,.5.1A.41.41,0,0,0,8,15.56a.11.11,0,0,0,0-.14,6.06,6.06,0,0,1-1-1.71c0-.11-.25-.18-.45-.15a.36.36,0,0,0-.29.13.12.12,0,0,0,0,.1,6.54,6.54,0,0,0,1.06,1.79"/><path class="cls-17" d="M11.84,5.56a.62.62,0,0,0,.53,0,20.9,20.9,0,0,1,2.86-1,.27.27,0,0,0,.17-.11.11.11,0,0,0,0-.16.61.61,0,0,0-.52-.07,20.89,20.89,0,0,0-3,1.09.28.28,0,0,0-.12.08c0,.07,0,.14.08.19"/><path class="cls-18" d="M18,3.7a.5.5,0,0,0,.48.12,28.72,28.72,0,0,1,3.41-.35.42.42,0,0,0,.32-.14.08.08,0,0,0,0-.08c0-.11-.2-.19-.41-.18a31.7,31.7,0,0,0-3.57.38.37.37,0,0,0-.25.13.11.11,0,0,0,0,.12"/><path class="cls-19" d="M11.37,18.61a.64.64,0,0,0,.54,0,.19.19,0,0,0,.08-.07c0-.07,0-.16-.09-.21A13.7,13.7,0,0,1,9.62,17a.64.64,0,0,0-.53-.05A.27.27,0,0,0,9,17c0,.06,0,.12.05.18a13.72,13.72,0,0,0,2.37,1.4"/><path class="cls-20" d="M40.33,10.2c0-.11-.24-.18-.45-.16a.46.46,0,0,0-.29.13.09.09,0,0,0,0,.1,4.62,4.62,0,0,1,.3,1.79c0,.11.16.2.38.2a.45.45,0,0,0,.36-.14s0,0,0-.06a4.77,4.77,0,0,0-.32-1.86"/><path class="cls-21" d="M37.06,17a.68.68,0,0,0-.53,0,15.72,15.72,0,0,1-2.37,1.33.2.2,0,0,0-.11.08c0,.07,0,.14.07.2a.67.67,0,0,0,.54,0,15.81,15.81,0,0,0,2.48-1.38l0-.06c.06-.07,0-.17-.13-.22"/><path class="cls-22" d="M25.12,20.71c0-.11-.21-.19-.42-.18l-.88,0c-.86,0-1.72,0-2.59,0a.5.5,0,0,0-.41.13s0,0,0,0,.12.21.33.22C22,21,23,21,23.85,21l.92,0a.46.46,0,0,0,.33-.13.24.24,0,0,0,0-.08"/><path class="cls-23" d="M32.23,4.26a.64.64,0,0,0-.52.07l0,0c-.05.09,0,.19.17.23A22.43,22.43,0,0,1,34,5.39l.62.28a.68.68,0,0,0,.54,0,.3.3,0,0,0,.08-.07c.05-.08,0-.16-.1-.21l-.64-.3a22.79,22.79,0,0,0-2.26-.82"/><path class="cls-24" d="M5.87,11.92c0,.11.17.2.38.2A.46.46,0,0,0,6.62,12a.14.14,0,0,0,0-.06,4.74,4.74,0,0,1,.26-1.36c0-.14.11-.28.17-.42S7,9.94,6.79,9.91a.52.52,0,0,0-.45.13v0a4.22,4.22,0,0,0-.18.45,4.71,4.71,0,0,0-.28,1.41"/><path class="cls-25" d="M7.7,8.55a.6.6,0,0,0,.51-.1,4.89,4.89,0,0,1,.39-.4A10.87,10.87,0,0,1,10,6.9a.1.1,0,0,0,.06-.05c0-.08,0-.17-.13-.22a.63.63,0,0,0-.54,0,11.1,11.1,0,0,0-1.47,1.2,5.25,5.25,0,0,0-.4.42l0,0c-.06.09,0,.19.2.24"/><path class="cls-26" d="M14.27,19.73a26.94,26.94,0,0,0,3.29.77h0a.52.52,0,0,0,.48-.13c.07-.1,0-.21-.24-.25h0a27,27,0,0,1-3.15-.75.61.61,0,0,0-.52.08l0,0c0,.09,0,.19.17.24"/><path class="cls-27" d="M25,3.26c0,.11.12.2.33.22a29.62,29.62,0,0,1,3.38.38.53.53,0,0,0,.49-.12c.07-.1,0-.22-.24-.25a32.52,32.52,0,0,0-3.54-.41.45.45,0,0,0-.4.14.05.05,0,0,0,0,0"/><path class="cls-28" d="M40.19,13.92c.05-.1-.08-.21-.28-.23a.48.48,0,0,0-.45.13v0a7.11,7.11,0,0,1-.49.88,9.58,9.58,0,0,1-.64.82l0,0c-.06.09,0,.2.2.24a.6.6,0,0,0,.51-.1,7.67,7.67,0,0,0,.67-.86,5.59,5.59,0,0,0,.51-.92"/><path class="cls-29" d="M38.44,14.63a7.26,7.26,0,0,1-1,1.19c-1.91,1.86-5.07,3.25-8.74,3.95a29.89,29.89,0,0,1-4.9.51A29.15,29.15,0,0,1,18,19.86a22.8,22.8,0,0,1-5.12-1.47,13.11,13.11,0,0,1-3.25-1.93c-2.07-1.69-2.91-3.77-2.18-5.84a5.06,5.06,0,0,1,.63-1.25,7.34,7.34,0,0,1,1-1.19C11,6.31,14.15,4.93,17.82,4.23a30.25,30.25,0,0,1,10.71-.1A23.08,23.08,0,0,1,33.64,5.6,13.83,13.83,0,0,1,36.9,7.53c2.06,1.7,2.91,3.77,2.18,5.85A5.7,5.7,0,0,1,38.44,14.63Z"/><path class="cls-30" d="M0,12.59s0,.22.1.62a7.45,7.45,0,0,0,.56,1.66,9.87,9.87,0,0,0,1.55,2.21A15.1,15.1,0,0,0,5,19.31a20.64,20.64,0,0,0,3.7,1.88c.7.27,1.41.55,2.16.76.37.11.74.24,1.12.34l1.16.3.59.15.61.12,1.21.23c.81.13,1.67.26,2.51.36l1.26.12.64.05.65,0,1.28.06h1.3c.86,0,1.72,0,2.58-.06l1.28-.1.64-.06.63-.07a42.22,42.22,0,0,0,4.91-.88l1.16-.32.57-.15.56-.18,1.09-.36c.36-.13.7-.28,1-.41a20.92,20.92,0,0,0,2-.88,8.61,8.61,0,0,0,.9-.49l.85-.49a16.44,16.44,0,0,0,2.74-2.2,10.13,10.13,0,0,0,1.63-2.17c.16-.34.29-.65.41-.92s.18-.51.23-.71c.08-.4.13-.61.13-.61l-.1.62c0,.2-.12.44-.19.72s-.24.6-.39.95a10.17,10.17,0,0,1-1.57,2.25A12.6,12.6,0,0,1,43,18.38a7,7,0,0,1-.72.57l-.78.56-.86.53c-.29.17-.58.36-.9.51a21.31,21.31,0,0,1-2,.94c-.34.14-.69.3-1,.44l-1.11.38-.56.2-.58.16L33.29,23a42.3,42.3,0,0,1-5,.92l-.64.08-.64.06-1.3.11c-.86,0-1.74.1-2.61.08-.44,0-.87,0-1.31,0l-1.3-.06-.65,0-.65-.06L17.94,24c-.86-.11-1.68-.23-2.52-.37l-1.23-.25-.61-.13-.6-.15-1.18-.31c-.39-.1-.76-.25-1.14-.37-.76-.23-1.46-.53-2.15-.81a20.2,20.2,0,0,1-3.73-2,13.47,13.47,0,0,1-2.7-2.33,10,10,0,0,1-1.5-2.31,7.57,7.57,0,0,1-.49-1.7Z"/><text class="cls-31" transform="matrix(1.56, 0.12, -0.08, 1, 12, 14.3)">200</text></g></g></g></svg>