<svg xmlns="http://www.w3.org/2000/svg" xmlns:xlink="http://www.w3.org/1999/xlink" viewBox="0 0 46.59 30.22"><defs><style>.cls-1{isolation:isolate;}.cls-2{fill:#0ac1c1;}.cls-3{fill:url(#linear-gradient);}.cls-4{fill:url(#linear-gradient-2);}.cls-5{fill:url(#linear-gradient-3);}.cls-6{fill:url(#linear-gradient-4);}.cls-7{fill:url(#linear-gradient-5);}.cls-8{fill:url(#linear-gradient-6);}.cls-9{fill:url(#linear-gradient-7);}.cls-10{fill:url(#linear-gradient-8);}.cls-11{fill:url(#linear-gradient-9);}.cls-12{fill:url(#linear-gradient-10);}.cls-13{fill:url(#linear-gradient-11);}.cls-14{fill:url(#linear-gradient-12);}.cls-15{fill:url(#linear-gradient-13);}.cls-16{fill:url(#linear-gradient-14);}.cls-17{fill:url(#linear-gradient-15);}.cls-18{fill:url(#linear-gradient-16);}.cls-19{fill:url(#linear-gradient-17);}.cls-20{fill:url(#linear-gradient-18);}.cls-21{fill:url(#linear-gradient-19);}.cls-22{fill:url(#linear-gradient-20);}.cls-23{fill:url(#linear-gradient-21);}.cls-24{fill:url(#linear-gradient-22);}.cls-25{fill:url(#linear-gradient-23);}.cls-26{fill:url(#linear-gradient-24);}.cls-27{fill:#dbdbdb;mix-blend-mode:overlay;}.cls-28{font-size:8.22px;font-family:BodoniMTPosterCompressed, Bodoni MT;}</style><linearGradient id="linear-gradient" x1="68.58" y1="68.45" x2="68.1" y2="77.17" gradientTransform="translate(69.71 99.4) rotate(-176.44)" gradientUnits="userSpaceOnUse"><stop offset="0" stop-color="#d9d9d9"/><stop offset="1" stop-color="#fff"/></linearGradient><linearGradient id="linear-gradient-2" x1="27.34" y1="74.26" x2="32.43" y2="84.55" xlink:href="#linear-gradient"/><linearGradient id="linear-gradient-3" x1="46" y1="64.48" x2="47.09" y2="77.2" xlink:href="#linear-gradient"/><linearGradient id="linear-gradient-4" x1="55.33" y1="91.96" x2="58.15" y2="98.96" gradientTransform="translate(69.71 99.4) rotate(-176.44)" gradientUnits="userSpaceOnUse"><stop offset="0" stop-color="#858585"/><stop offset="1" stop-color="#d9d9d9"/></linearGradient><linearGradient id="linear-gradient-5" x1="68.66" y1="85.57" x2="76.56" y2="88.2" xlink:href="#linear-gradient-4"/><linearGradient id="linear-gradient-6" x1="40.27" y1="84.47" x2="28.1" y2="81.11" xlink:href="#linear-gradient-4"/><linearGradient id="linear-gradient-7" x1="47.54" y1="76.66" x2="46.72" y2="68.84" xlink:href="#linear-gradient-4"/><linearGradient id="linear-gradient-8" x1="64.56" y1="78.61" x2="69.92" y2="72.88" xlink:href="#linear-gradient-4"/><linearGradient id="linear-gradient-9" x1="44.47" y1="106.86" x2="44.72" y2="69.81" xlink:href="#linear-gradient-4"/><linearGradient id="linear-gradient-10" x1="37.2" y1="106.81" x2="37.44" y2="69.76" xlink:href="#linear-gradient-4"/><linearGradient id="linear-gradient-11" x1="67.59" y1="107.01" x2="67.83" y2="69.96" xlink:href="#linear-gradient-4"/><linearGradient id="linear-gradient-12" x1="61.81" y1="106.97" x2="62.05" y2="69.92" xlink:href="#linear-gradient-4"/><linearGradient id="linear-gradient-13" x1="55.46" y1="106.94" x2="55.7" y2="69.87" xlink:href="#linear-gradient-4"/><linearGradient id="linear-gradient-14" x1="63.97" y1="106.99" x2="64.21" y2="69.93" xlink:href="#linear-gradient-4"/><linearGradient id="linear-gradient-15" x1="34.9" y1="106.8" x2="35.14" y2="69.74" xlink:href="#linear-gradient-4"/><linearGradient id="linear-gradient-16" x1="38.88" y1="106.83" x2="39.13" y2="69.77" xlink:href="#linear-gradient-4"/><linearGradient id="linear-gradient-17" x1="51.3" y1="106.91" x2="51.55" y2="69.85" xlink:href="#linear-gradient-4"/><linearGradient id="linear-gradient-18" x1="41.99" y1="106.85" x2="42.23" y2="69.79" xlink:href="#linear-gradient-4"/><linearGradient id="linear-gradient-19" x1="68.45" y1="107.02" x2="68.69" y2="69.96" xlink:href="#linear-gradient-4"/><linearGradient id="linear-gradient-20" x1="66.4" y1="107.01" x2="66.64" y2="69.95" xlink:href="#linear-gradient-4"/><linearGradient id="linear-gradient-21" x1="58.21" y1="106.96" x2="58.45" y2="69.89" xlink:href="#linear-gradient-4"/><linearGradient id="linear-gradient-22" x1="48.45" y1="106.89" x2="48.69" y2="69.83" xlink:href="#linear-gradient-4"/><linearGradient id="linear-gradient-23" x1="35.5" y1="106.8" x2="35.74" y2="69.75" xlink:href="#linear-gradient-4"/><linearGradient id="linear-gradient-24" x1="50.14" y1="95.26" x2="53.37" y2="73.86" xlink:href="#linear-gradient-4"/></defs><g class="cls-1"><g id="Layer_2" data-name="Layer 2"><g id="Layer_1-2" data-name="Layer 1"><path class="cls-2" d="M2.65,17.74l-.13-.14a3.83,3.83,0,0,1-.28-.29l-.13-.13-.3-.35-.06-.07-.33-.44a.56.56,0,0,0,0-.08c-.09-.12-.16-.24-.24-.36l-.08-.13-.18-.31a.8.8,0,0,1-.08-.16A3.18,3.18,0,0,1,.63,15l-.06-.13c-.07-.15-.13-.31-.19-.47a4.42,4.42,0,0,1-.15-.48l0-.12-.09-.39s0-.09,0-.14A4.81,4.81,0,0,1,0,12.7c0-.14,0-.27,0-.41,0,2.08.05,4.15.08,6.23,0,.13,0,.27,0,.4h0a5,5,0,0,0,.07.54v.05a.31.31,0,0,1,0,.08c0,.13,0,.25.08.37s0,.07,0,.1a.14.14,0,0,1,0,.06c0,.14.09.29.14.43a.08.08,0,0,0,0,0h0l.18.45s0,0,0,0l.06.12c0,.1.09.2.14.3a.25.25,0,0,1,0,.07.41.41,0,0,1,0,.09c.05.1.11.19.16.28a1.05,1.05,0,0,0,.07.11.21.21,0,0,0,0,.06l.22.33a.35.35,0,0,0,.05.08v0l.32.42,0,0,.08.1.27.31,0,.05.09.09.27.28a.3.3,0,0,0,.08.08.23.23,0,0,0,.07.07l.32.3.09.09,0,0,.45.39.07.06.14.1.38.29.08.06.13.1.41.28.13.09.1.06.58.36.08,0h0c.25.15.51.29.77.43l.1.06.12.06.86.42.05,0h0c.22.11.45.21.69.31h0l.51.21.18.07.27.1.53.2.26.09.13.05.15,0c.38.13.78.26,1.18.37l.12,0,.07,0,.22.06.66.18.3.08.31.07.22.05.56.13.48.1.56.11.31.06.38.06,1,.16.24,0,.71.1h.05c.52.06,1,.11,1.55.15l.17,0,.24,0,.54,0,.3,0h.24l.41,0h3.39l.79,0,.47,0h.33l.83-.07.66-.07h.19l.88-.11.67-.09.13,0h.08l.89-.15.7-.13.25-.05.47-.1.34-.08h.07l.59-.14.26-.07h0l.85-.23h0l.89-.26h0l.41-.13.47-.15h0l.75-.26.13-.05h0c.3-.12.6-.23.89-.36h0l.15-.07.71-.31.09,0,.19-.1.65-.31.15-.08.13-.07c.32-.17.64-.34.94-.52h0l.22-.14c.15-.09.31-.18.45-.28l.25-.17.33-.22.06-.05.18-.13.39-.29.2-.16.36-.3.17-.15.49-.46a10.43,10.43,0,0,0,1.44-1.72,8.08,8.08,0,0,0,.91-1.81,6.53,6.53,0,0,0,.36-2.19c0-2.07-.05-4.15-.08-6.22a6.43,6.43,0,0,1-.36,2.18,7.88,7.88,0,0,1-.91,1.81,10.49,10.49,0,0,1-1.44,1.73c-.16.15-.32.31-.49.45l-.16.15-.37.31-.19.15-.4.3-.17.13-.41.28-.23.15c-.17.12-.35.23-.54.34l-.13.08-.05,0-.92.51-.28.14-.65.32-.28.13-.7.31-.19.08c-.29.12-.57.24-.87.35l-.44.16-.46.16-.49.16-.4.13q-.9.27-1.83.51l-.22,0-.71.17-.32.07-.73.15c-.55.11-1.11.21-1.67.29l-.13,0c-.54.08-1.08.16-1.63.22h-.11q-.82.09-1.65.15h-.16L24.1,24l-1,0H21.81l-.66,0h-.39l-.55,0-.54,0-.4,0q-.78-.06-1.56-.15l-.65-.09-.36-.05c-.34,0-.68-.1-1-.15L15,23.28l-.59-.11-.46-.1L13.4,23,13,22.86c-.47-.11-.92-.23-1.37-.36l-.14,0-1.2-.38L10,22l-.27-.1-.52-.19L9,21.59l-.68-.28h0L7.58,21h0l-.9-.44-.2-.11c-.27-.14-.53-.28-.78-.43L5.58,20c-.21-.12-.41-.24-.6-.37l-.21-.14-.42-.29L4.14,19l-.38-.29-.2-.16-.46-.39L3,18.05Z"/><path class="cls-3" d="M7.55,21l-.9-.44-.2-.11c-.27-.14-.53-.28-.78-.43L5.58,20c-.21-.12-.41-.24-.6-.37l-.21-.14-.42-.29L4.14,19l-.38-.29-.2-.16.07,6.22.07.06.14.1.38.29.08.06.13.1.41.28.13.09.1.06.58.36.08,0h0c.25.15.51.29.77.43l.1.06.12.06.86.42.05,0h0c.22.11.45.21.69.31l-.08-6.23L7.58,21Z"/><path class="cls-4" d="M45.32,21.93a8.08,8.08,0,0,0,.91-1.81l-.08-6.23a7.88,7.88,0,0,1-.91,1.81,10.49,10.49,0,0,1-1.44,1.73l.08,6.22A10.43,10.43,0,0,0,45.32,21.93Z"/><path class="cls-5" d="M27.74,23.73h-.11q-.82.09-1.65.15h-.16L24.1,24l.08,6.22h.45l.79,0,.47,0h.33l.83-.07.66-.07h.19l.88-.11.67-.09.13,0h.08l.89-.15.7-.13-.08-6.23c-.55.11-1.11.21-1.67.29l-.13,0C28.83,23.59,28.29,23.67,27.74,23.73Z"/><path class="cls-2" d="M3.56,18.54a19.27,19.27,0,0,0,4.72,2.77,32.87,32.87,0,0,0,7.4,2.1A43.42,43.42,0,0,0,24.1,24a42.5,42.5,0,0,0,7.07-.78c5.31-1,9.88-3.05,12.63-5.77a10.49,10.49,0,0,0,1.44-1.73,7.68,7.68,0,0,0,.91-1.81c1-3-.2-6-3.19-8.44a19.79,19.79,0,0,0-4.72-2.77A33.35,33.35,0,0,0,30.83.59,43.26,43.26,0,0,0,22.42,0,41.47,41.47,0,0,0,15.34.8C10,1.84,5.47,3.86,2.71,6.57A10.28,10.28,0,0,0,1.28,8.29a8.65,8.65,0,0,0-.92,1.82C-.68,13.11.56,16.11,3.56,18.54Z"/><path class="cls-6" d="M17.16,3.38a33.06,33.06,0,0,1,5.45-.6h.84L22.42,0A42.5,42.5,0,0,0,15.34.8l1,2.74Z"/><text/><path class="cls-7" d="M5.51,11c0-.14.08-.28.13-.43a6,6,0,0,1,.7-1.39A8.08,8.08,0,0,1,7.45,7.82l.41-.38L2.71,6.57A10.78,10.78,0,0,0,1.28,8.29a7.74,7.74,0,0,0-.91,1.82Z"/><path class="cls-8" d="M40.87,13.46a6,6,0,0,1-.7,1.39,7.92,7.92,0,0,1-1.1,1.33l-.41.38,5.14.87a10.49,10.49,0,0,0,1.44-1.73,7.88,7.88,0,0,0,.91-1.81L41,13A3.66,3.66,0,0,1,40.87,13.46Z"/><path class="cls-9" d="M31.17,23.2l-1-2.74-.79.16a32.94,32.94,0,0,1-5.45.6h-.84l1,2.75A42.5,42.5,0,0,0,31.17,23.2Z"/><path class="cls-10" d="M8.28,21.31l4.11-1.88-.66-.26A15.19,15.19,0,0,1,8.09,17l-.43-.37-4.1,1.88A19.38,19.38,0,0,0,8.28,21.31Z"/><path class="cls-2" d="M7.66,16.67l.43.37a15.19,15.19,0,0,0,3.64,2.13l.66.26a25.79,25.79,0,0,0,5,1.35,33.31,33.31,0,0,0,5.63.45h.84a32.94,32.94,0,0,0,5.45-.6l.79-.16a19.54,19.54,0,0,0,8.52-3.9l.41-.38a7.92,7.92,0,0,0,1.1-1.33,6,6,0,0,0,.7-1.39A3.66,3.66,0,0,0,41,13c.52-2-.29-4-2.15-5.69L38.42,7a15,15,0,0,0-3.64-2.13l-.66-.27a25.89,25.89,0,0,0-5-1.34,32.5,32.5,0,0,0-5.64-.45h-.84a33.06,33.06,0,0,0-5.45.6l-.78.16a19.49,19.49,0,0,0-8.52,3.9l-.41.38A8.08,8.08,0,0,0,6.34,9.15a6,6,0,0,0-.7,1.39c0,.15-.09.29-.13.43C5,13,5.81,15,7.66,16.67Z"/><path class="cls-11" d="M31.86,19.49a.6.6,0,0,0-.52-.08c-.78.23-1.59.43-2.42.6l-.78.14a.39.39,0,0,0-.24.12.12.12,0,0,0,0,.13.5.5,0,0,0,.48.12q.4-.06.81-.15c.87-.17,1.72-.37,2.53-.61a.37.37,0,0,0,.18-.11.11.11,0,0,0,0-.16"/><path class="cls-12" d="M37.49,6.72a.66.66,0,0,0-.54,0,.32.32,0,0,0-.14.1.13.13,0,0,0,0,.18l.48.37A9.7,9.7,0,0,1,38.55,8.5a.56.56,0,0,0,.5.1.33.33,0,0,0,.21-.12.11.11,0,0,0,0-.14A9.88,9.88,0,0,0,38,7.1l-.5-.38"/><path class="cls-13" d="M7.26,15.65a.56.56,0,0,0,.5.1A.33.33,0,0,0,8,15.63a.11.11,0,0,0,0-.14,6.34,6.34,0,0,1-1-1.71c0-.1-.24-.17-.45-.15a.42.42,0,0,0-.29.14.11.11,0,0,0,0,.1,6.16,6.16,0,0,0,1.07,1.78"/><path class="cls-14" d="M11.81,5.62a.65.65,0,0,0,.53,0,22.74,22.74,0,0,1,2.85-1,.37.37,0,0,0,.18-.11.13.13,0,0,0,0-.16.57.57,0,0,0-.52-.07,21.55,21.55,0,0,0-3,1.1.23.23,0,0,0-.12.08c0,.07,0,.14.08.2"/><path class="cls-15" d="M17.91,3.72c.06.11.28.16.48.13a30.91,30.91,0,0,1,3.41-.38.42.42,0,0,0,.32-.13.09.09,0,0,0,0-.08c0-.11-.2-.19-.41-.18a34.19,34.19,0,0,0-3.57.39.37.37,0,0,0-.25.13.11.11,0,0,0,0,.12"/><path class="cls-16" d="M11.4,18.67a.68.68,0,0,0,.54,0,.19.19,0,0,0,.08-.07c.05-.07,0-.15-.1-.21A14.55,14.55,0,0,1,9.64,17a.6.6,0,0,0-.53,0,.26.26,0,0,0-.14.1s0,.12,0,.17a13.82,13.82,0,0,0,2.38,1.4"/><path class="cls-17" d="M40.32,10.12c0-.11-.24-.17-.45-.15a.42.42,0,0,0-.29.13.12.12,0,0,0,0,.1A4.58,4.58,0,0,1,39.88,12c0,.11.16.2.38.2a.45.45,0,0,0,.36-.14s0,0,0-.06a4.8,4.8,0,0,0-.32-1.86"/><path class="cls-18" d="M37.09,17a.66.66,0,0,0-.54.05,15.24,15.24,0,0,1-2.37,1.33.31.31,0,0,0-.11.08c0,.07,0,.14.08.2a.64.64,0,0,0,.54,0,15.28,15.28,0,0,0,2.47-1.39l.06-.06c.05-.08,0-.17-.13-.22"/><path class="cls-19" d="M25.15,20.7c0-.11-.2-.19-.41-.17l-.88,0c-.86,0-1.73,0-2.6,0a.48.48,0,0,0-.4.13l0,0c0,.11.12.21.33.22.91,0,1.82.06,2.71,0l.93,0a.42.42,0,0,0,.32-.14.08.08,0,0,0,0-.08"/><path class="cls-20" d="M32.2,4.22a.63.63,0,0,0-.53.08l0,0c-.06.09,0,.19.16.24A21.73,21.73,0,0,1,34,5.34l.62.28a.68.68,0,0,0,.54,0s.07,0,.08-.07,0-.15-.1-.21L34.45,5a22.61,22.61,0,0,0-2.25-.81"/><path class="cls-21" d="M5.87,12c0,.11.17.2.38.2a.49.49,0,0,0,.37-.13.14.14,0,0,0,0-.07,4.3,4.3,0,0,1,.26-1.35,3.16,3.16,0,0,1,.16-.43c.05-.1-.08-.21-.28-.23a.52.52,0,0,0-.45.13v0c-.07.15-.12.3-.18.45A5,5,0,0,0,5.87,12"/><path class="cls-22" d="M7.68,8.62a.58.58,0,0,0,.51-.1c.13-.14.25-.27.39-.4A10.15,10.15,0,0,1,10,7l0,0c.06-.08,0-.17-.13-.22a.61.61,0,0,0-.53,0A10.53,10.53,0,0,0,7.9,7.94l-.4.42,0,0c-.06.09,0,.2.2.24"/><path class="cls-23" d="M14.3,19.77a28.66,28.66,0,0,0,3.3.76h0a.53.53,0,0,0,.49-.12c.07-.11,0-.22-.24-.25h0a24.33,24.33,0,0,1-3.15-.73.63.63,0,0,0-.53.08s0,0,0,0,0,.18.16.23"/><path class="cls-24" d="M24.94,3.25c0,.11.12.21.33.22a29.6,29.6,0,0,1,3.38.37.53.53,0,0,0,.49-.12c.07-.11,0-.22-.24-.25a30.17,30.17,0,0,0-3.54-.39.52.52,0,0,0-.41.13s0,0,0,0"/><path class="cls-25" d="M40.2,13.85c0-.11-.08-.21-.28-.24a.52.52,0,0,0-.45.13,0,0,0,0,0,0,0,6.46,6.46,0,0,1-.49.88,7,7,0,0,1-.64.82v0c-.07.1,0,.2.2.24a.54.54,0,0,0,.5-.1,6.65,6.65,0,0,0,.67-.86,7,7,0,0,0,.51-.92"/><path class="cls-26" d="M38.46,14.56a7.34,7.34,0,0,1-1,1.19c-1.9,1.88-5.06,3.28-8.73,4a28.7,28.7,0,0,1-4.89.54A30,30,0,0,1,18,19.89a22.82,22.82,0,0,1-5.12-1.45,13.61,13.61,0,0,1-3.26-1.91c-2.07-1.69-2.93-3.76-2.21-5.84a5.06,5.06,0,0,1,.63-1.25,7.88,7.88,0,0,1,1-1.2C11,6.37,14.12,5,17.78,4.25a29.76,29.76,0,0,1,4.89-.53,29.32,29.32,0,0,1,5.83.39,22.36,22.36,0,0,1,5.11,1.45,13.55,13.55,0,0,1,3.27,1.91c2.07,1.69,2.93,3.76,2.21,5.84A6.11,6.11,0,0,1,38.46,14.56Z"/><path class="cls-27" d="M0,12.7s0,.21.1.61A7.58,7.58,0,0,0,.69,15a9.63,9.63,0,0,0,1.56,2.21A15.07,15.07,0,0,0,5,19.39a21.07,21.07,0,0,0,3.71,1.87c.7.26,1.41.55,2.16.75.37.11.74.24,1.12.34l1.17.29.59.14.6.12,1.22.23c.81.13,1.67.25,2.51.35l1.27.11.63.05.65,0,1.29,0h1.29c.86,0,1.72,0,2.59-.07l1.27-.11.64-.05.63-.09a40.57,40.57,0,0,0,4.91-.9l1.15-.32L35,22l.56-.19,1.09-.36c.36-.13.71-.28,1-.41.7-.26,1.33-.59,2-.89.32-.14.61-.33.9-.49s.58-.33.85-.5A16.39,16.39,0,0,0,44.09,17a9.82,9.82,0,0,0,1.62-2.17c.16-.34.29-.65.41-.92s.17-.52.22-.71c.08-.4.13-.61.13-.61s0,.21-.1.62c0,.2-.11.44-.19.72s-.23.6-.38.95a10,10,0,0,1-1.56,2.26A13.69,13.69,0,0,1,43,18.29a6.68,6.68,0,0,1-.72.57l-.78.57c-.27.18-.56.35-.85.53s-.58.37-.9.52a21.31,21.31,0,0,1-2,.94c-.34.15-.69.31-1,.45l-1.1.39-.56.2-.58.16L33.33,23a41.93,41.93,0,0,1-4.94.95l-.64.09-.65.06-1.3.11c-.86,0-1.73.11-2.61.1H21.88l-1.3-.06-.65,0-.65-.06L18,24c-.86-.11-1.68-.23-2.52-.37l-1.23-.24-.61-.12-.6-.16-1.18-.3c-.39-.1-.77-.24-1.14-.36-.76-.23-1.47-.52-2.16-.8a21.23,21.23,0,0,1-3.74-2A13.83,13.83,0,0,1,2.1,17.31,10.12,10.12,0,0,1,.59,15a7.5,7.5,0,0,1-.5-1.69Z"/><text class="cls-28" transform="matrix(2, -0.05, -0.45, 0.89, 10.72, 14.79)">50</text></g></g></g></svg>