<svg xmlns="http://www.w3.org/2000/svg" xmlns:xlink="http://www.w3.org/1999/xlink" viewBox="0 0 46.54 31.39"><defs><style>.cls-1{isolation:isolate;}.cls-2{fill:url(#linear-gradient);}.cls-3{fill:url(#linear-gradient-2);}.cls-4{fill:url(#linear-gradient-3);}.cls-5{fill:url(#linear-gradient-4);}.cls-6{fill:url(#linear-gradient-5);}.cls-7{fill:url(#linear-gradient-6);}.cls-8{fill:url(#linear-gradient-7);}.cls-9{fill:url(#linear-gradient-8);}.cls-10{fill:url(#linear-gradient-9);}.cls-11{fill:url(#linear-gradient-10);}.cls-12{fill:url(#linear-gradient-11);}.cls-13{fill:url(#linear-gradient-12);}.cls-14{fill:url(#linear-gradient-13);}.cls-15{fill:url(#linear-gradient-14);}.cls-16{fill:url(#linear-gradient-15);}.cls-17{fill:url(#linear-gradient-16);}.cls-18{fill:url(#linear-gradient-17);}.cls-19{fill:url(#linear-gradient-18);}.cls-20{fill:url(#linear-gradient-19);}.cls-21{fill:url(#linear-gradient-20);}.cls-22{fill:url(#linear-gradient-21);}.cls-23{fill:url(#linear-gradient-22);}.cls-24{fill:url(#linear-gradient-23);}.cls-25{fill:url(#linear-gradient-24);}.cls-26{fill:url(#linear-gradient-25);}.cls-27{fill:url(#linear-gradient-26);}.cls-28{fill:url(#linear-gradient-27);}.cls-29{fill:url(#linear-gradient-28);}.cls-30{fill:#dbdbdb;mix-blend-mode:overlay;}.cls-31{font-size:11px;font-family:BodoniMTPosterCompressed, Bodoni MT;}</style><linearGradient id="linear-gradient" x1="62.88" y1="-67.51" x2="103.7" y2="-63.27" gradientTransform="translate(111.03 -39.21) rotate(-175.97)" gradientUnits="userSpaceOnUse"><stop offset="0" stop-color="#00193b"/><stop offset="1" stop-color="#004879"/></linearGradient><linearGradient id="linear-gradient-2" x1="100.72" y1="-74.24" x2="100.22" y2="-65.17" gradientTransform="translate(111.03 -39.21) rotate(-175.97)" gradientUnits="userSpaceOnUse"><stop offset="0" stop-color="#d9d9d9"/><stop offset="1" stop-color="#fff"/></linearGradient><linearGradient id="linear-gradient-3" x1="59.37" y1="-68.21" x2="64.68" y2="-57.48" xlink:href="#linear-gradient-2"/><linearGradient id="linear-gradient-4" x1="78.11" y1="-78.38" x2="79.25" y2="-65.12" xlink:href="#linear-gradient-2"/><linearGradient id="linear-gradient-5" x1="82.19" y1="-22.8" x2="84.96" y2="-78.76" gradientTransform="translate(111.03 -39.21) rotate(-175.97)" gradientUnits="userSpaceOnUse"><stop offset="0" stop-color="#004879"/><stop offset="1" stop-color="#00193b"/></linearGradient><linearGradient id="linear-gradient-6" x1="87.45" y1="-49.74" x2="90.3" y2="-42.66" gradientTransform="translate(111.03 -39.21) rotate(-175.97)" gradientUnits="userSpaceOnUse"><stop offset="0" stop-color="#858585"/><stop offset="1" stop-color="#d9d9d9"/></linearGradient><linearGradient id="linear-gradient-7" x1="73.25" y1="-52.62" x2="66.9" y2="-47.81" xlink:href="#linear-gradient-6"/><linearGradient id="linear-gradient-8" x1="100.81" y1="-56.41" x2="108.66" y2="-53.79" xlink:href="#linear-gradient-6"/><linearGradient id="linear-gradient-9" x1="72.36" y1="-57.69" x2="60.25" y2="-61.03" xlink:href="#linear-gradient-6"/><linearGradient id="linear-gradient-10" x1="79.68" y1="-65.69" x2="78.83" y2="-73.86" xlink:href="#linear-gradient-6"/><linearGradient id="linear-gradient-11" x1="96.7" y1="-63.77" x2="102.05" y2="-69.48" xlink:href="#linear-gradient-6"/><linearGradient id="linear-gradient-12" x1="85.78" y1="-37.82" x2="81.25" y2="-86.24" xlink:href="#linear-gradient-5"/><linearGradient id="linear-gradient-13" x1="76.6" y1="-34.34" x2="76.85" y2="-72.82" xlink:href="#linear-gradient-6"/><linearGradient id="linear-gradient-14" x1="69.32" y1="-34.37" x2="69.58" y2="-72.88" xlink:href="#linear-gradient-6"/><linearGradient id="linear-gradient-15" x1="99.71" y1="-34.16" x2="99.96" y2="-72.67" xlink:href="#linear-gradient-6"/><linearGradient id="linear-gradient-16" x1="93.93" y1="-34.22" x2="94.19" y2="-72.7" xlink:href="#linear-gradient-6"/><linearGradient id="linear-gradient-17" x1="87.58" y1="-34.26" x2="87.84" y2="-72.74" xlink:href="#linear-gradient-6"/><linearGradient id="linear-gradient-18" x1="96.09" y1="-34.18" x2="96.35" y2="-72.7" xlink:href="#linear-gradient-6"/><linearGradient id="linear-gradient-19" x1="67.02" y1="-34.39" x2="67.28" y2="-72.89" xlink:href="#linear-gradient-6"/><linearGradient id="linear-gradient-20" x1="71.01" y1="-34.37" x2="71.26" y2="-72.86" xlink:href="#linear-gradient-6"/><linearGradient id="linear-gradient-21" x1="83.43" y1="-34.32" x2="83.68" y2="-72.77" xlink:href="#linear-gradient-6"/><linearGradient id="linear-gradient-22" x1="74.11" y1="-34.33" x2="74.37" y2="-72.86" xlink:href="#linear-gradient-6"/><linearGradient id="linear-gradient-23" x1="100.57" y1="-34.16" x2="100.83" y2="-72.66" xlink:href="#linear-gradient-6"/><linearGradient id="linear-gradient-24" x1="98.53" y1="-34.18" x2="98.78" y2="-72.67" xlink:href="#linear-gradient-6"/><linearGradient id="linear-gradient-25" x1="90.33" y1="-34.2" x2="90.58" y2="-72.74" xlink:href="#linear-gradient-6"/><linearGradient id="linear-gradient-26" x1="80.57" y1="-34.28" x2="80.82" y2="-72.83" xlink:href="#linear-gradient-6"/><linearGradient id="linear-gradient-27" x1="67.62" y1="-34.39" x2="67.87" y2="-72.89" xlink:href="#linear-gradient-6"/><linearGradient id="linear-gradient-28" x1="82.21" y1="-46.42" x2="85.56" y2="-68.57" xlink:href="#linear-gradient-6"/></defs><g class="cls-1"><g id="Layer_2" data-name="Layer 2"><g id="Layer_1-2" data-name="Layer 1"><path class="cls-2" d="M2.59,18.3l-.13-.14-.28-.3-.12-.14-.3-.37-.05-.07q-.18-.23-.33-.45l-.06-.09-.23-.37c0-.05-.05-.1-.08-.14S.89,16,.84,15.91l-.09-.17L.6,15.4l-.06-.12a5,5,0,0,1-.18-.5,4.13,4.13,0,0,1-.15-.5l0-.13c0-.13-.06-.27-.08-.4a.78.78,0,0,1,0-.14A5.32,5.32,0,0,1,0,13.05c0-.14,0-.28,0-.42,0,2.16,0,4.31,0,6.47,0,.14,0,.28,0,.42H0c0,.19,0,.37.07.55v.06a.29.29,0,0,1,0,.09c0,.12.05.25.08.38a.36.36,0,0,0,0,.1s0,0,0,.06.09.3.13.45l0,0v0a4.37,4.37,0,0,0,.18.46s0,0,0,.05l.06.11c0,.11.09.21.14.32a.59.59,0,0,0,0,.08.41.41,0,0,0,0,.09,2.69,2.69,0,0,0,.16.29l.06.12,0,.06.21.34.06.09h0l.32.45v0a.39.39,0,0,1,.08.1l.27.32a.1.1,0,0,0,0,.05l.08.1.27.29.08.09a.46.46,0,0,1,.07.07l.31.31.09.09,0,0a5.82,5.82,0,0,0,.45.4l.07.06.13.12.38.3.08.06.13.1c.13.1.26.2.4.29l.13.1.1.06c.19.13.38.26.58.38l.08.06h0l.76.45a.31.31,0,0,1,.1,0l.12.07c.28.15.56.3.85.44l.06,0h0l.68.32h0l.51.22.18.07.27.11.53.21.26.1.12,0,.15.05,1.18.4.12,0,.07,0,.22.06.66.19.3.08.3.08.23,0,.55.14.48.1.56.12.31.06.38.07c.34.07.69.12,1,.18l.24,0,.71.1h.05c.51.06,1,.12,1.55.16l.17,0,.23,0,.55,0,.3,0h.24l.4,0,.26,0h3.14l.78,0,.48,0H26l.83-.06.66-.07h.19l.88-.11.67-.1h.13l.08,0c.3,0,.6-.09.89-.15l.71-.13.24-.05.48-.1.34-.07.07,0,.59-.14.26-.07h0l.85-.24h0l.89-.27h0l.41-.14.47-.15h0l.75-.28.13,0h0c.3-.11.6-.23.89-.36h0l.16-.07.71-.32.09,0,.19-.1.65-.32.16-.08.13-.07.94-.54h0l.22-.15.45-.28.25-.18a3.88,3.88,0,0,0,.33-.23l.07,0,.18-.14.39-.3.2-.17c.13-.1.24-.2.36-.31l.18-.15.49-.47a12,12,0,0,0,1.46-1.78A8.87,8.87,0,0,0,46.15,21a7,7,0,0,0,.39-2.27c0-2.16,0-4.31,0-6.47a7,7,0,0,1-.39,2.27,8.87,8.87,0,0,1-.93,1.88,11,11,0,0,1-1.46,1.78c-.16.16-.32.32-.49.47l-.17.15-.37.32-.19.15-.41.32-.17.13-.41.29a1.88,1.88,0,0,0-.23.16l-.54.34-.14.08a.1.1,0,0,1-.05,0c-.3.18-.61.35-.92.52l-.28.15-.66.32a2.44,2.44,0,0,1-.28.14l-.71.32-.19.08c-.28.12-.57.24-.87.35l-.44.17-.46.16-.49.17-.41.13c-.6.19-1.21.36-1.83.52l-.22.05-.72.17-.32.07c-.24.05-.48.11-.72.15q-.84.16-1.68.3l-.13,0c-.54.08-1.08.15-1.63.21H27.5q-.81.09-1.65.15H25.7c-.57,0-1.15.06-1.73.07H21.68l-.66,0-.39,0-.55,0-.54,0-.4,0c-.52-.05-1-.1-1.56-.17l-.64-.09-.36,0-1-.17-.67-.13L14.3,24l-.46-.11-.56-.13-.37-.1c-.47-.12-.93-.24-1.37-.38l-.14,0-1.19-.4-.28-.1-.27-.1-.51-.2-.29-.12-.68-.29h0l-.69-.32,0,0-.89-.47-.2-.1-.77-.46-.1-.06-.59-.39-.21-.15-.41-.3-.21-.16-.38-.3-.2-.17c-.16-.14-.31-.27-.45-.41l-.12-.11Z"/><path class="cls-3" d="M7.45,21.71l-.89-.47-.2-.1-.77-.46-.1-.06-.59-.39-.21-.15-.41-.3-.21-.16-.38-.3-.2-.17v6.46l.07.06.13.12.38.3.08.06.13.1c.13.1.26.2.4.29l.13.1.1.06c.19.13.38.26.58.38l.08.06h0l.76.45a.31.31,0,0,1,.1,0l.12.07c.28.15.56.3.85.44l.06,0h0l.68.32V22.05l-.69-.32Z"/><path class="cls-4" d="M45.22,22.91A8.87,8.87,0,0,0,46.15,21V14.56a8.87,8.87,0,0,1-.93,1.88,11,11,0,0,1-1.46,1.78v6.47A12,12,0,0,0,45.22,22.91Z"/><path class="cls-5" d="M27.62,24.67H27.5q-.81.09-1.65.15H25.7c-.57,0-1.15.06-1.73.07v6.47h.46l.78,0,.48,0H26l.83-.06.66-.07h.19l.88-.11.67-.1h.13l.08,0c.3,0,.6-.09.89-.15l.71-.13V24.14q-.84.16-1.68.3l-.13,0C28.71,24.54,28.17,24.61,27.62,24.67Z"/><path class="cls-6" d="M3.49,19.15a19.24,19.24,0,0,0,4.69,2.9,32.41,32.41,0,0,0,7.38,2.22,41.83,41.83,0,0,0,8.41.64,40.5,40.5,0,0,0,7.08-.77c5.32-1,9.92-3.11,12.7-5.92a11.5,11.5,0,0,0,1.46-1.78,8.87,8.87,0,0,0,.93-1.88C47.21,11.45,46,8.32,43,5.77a19.75,19.75,0,0,0-4.69-2.9A32.41,32.41,0,0,0,31,.65,42.73,42.73,0,0,0,22.55,0a41.48,41.48,0,0,0-7.08.77C10.15,1.83,5.56,3.9,2.78,6.7A11,11,0,0,0,1.32,8.49a8.21,8.21,0,0,0-.93,1.88C-.69,13.48.52,16.6,3.49,19.15Z"/><path class="cls-7" d="M17.26,3.47a33.19,33.19,0,0,1,5.46-.59h.84L22.55,0a41.7,41.7,0,0,0-7.08.77l1,2.86Z"/><path class="cls-8" d="M38.48,7.32c.15.12.29.25.43.38L43,5.77a19.75,19.75,0,0,0-4.69-2.9L34.21,4.8l.66.28A14.63,14.63,0,0,1,38.48,7.32Z"/><path class="cls-9" d="M5.53,11.29a4.29,4.29,0,0,1,.13-.44A5.94,5.94,0,0,1,6.38,9.4,7.91,7.91,0,0,1,7.5,8l.41-.4L2.78,6.7A11.39,11.39,0,0,0,1.32,8.48a8.63,8.63,0,0,0-.93,1.88Z"/><path class="cls-10" d="M40.87,14.08a6.92,6.92,0,0,1-.72,1.44A8.91,8.91,0,0,1,39,16.9l-.42.39,5.14.93a11,11,0,0,0,1.46-1.78,8.87,8.87,0,0,0,.93-1.88L41,13.63C41,13.78,40.92,13.93,40.87,14.08Z"/><path class="cls-11" d="M31.06,24.14l-1-2.85-.79.16a31.14,31.14,0,0,1-5.45.59H23l1,2.86A40.72,40.72,0,0,0,31.06,24.14Z"/><path class="cls-12" d="M8.18,22.05l4.13-1.93-.65-.28A15,15,0,0,1,8,17.61l-.43-.39L3.49,19.15A19.24,19.24,0,0,0,8.18,22.05Z"/><path class="cls-13" d="M7.61,17.22l.43.39a15,15,0,0,0,3.62,2.23l.65.28a24.9,24.9,0,0,0,5,1.43,31.32,31.32,0,0,0,5.62.5h.85a31.14,31.14,0,0,0,5.45-.59l.79-.16a19.28,19.28,0,0,0,8.56-4L39,16.9a8.91,8.91,0,0,0,1.12-1.38,6.92,6.92,0,0,0,.72-1.44c.05-.15.09-.3.13-.45.54-2.09-.25-4.17-2.09-5.93-.14-.13-.28-.26-.43-.38a14.63,14.63,0,0,0-3.61-2.24l-.66-.28a25,25,0,0,0-5-1.42,32.38,32.38,0,0,0-5.63-.51h-.84a33.19,33.19,0,0,0-5.46.59l-.79.17a19.27,19.27,0,0,0-8.56,4L7.5,8A7.91,7.91,0,0,0,6.38,9.4a5.94,5.94,0,0,0-.72,1.45,4.29,4.29,0,0,0-.13.44C5,13.39,5.78,15.46,7.61,17.22Z"/><path class="cls-14" d="M31.79,20.29a.61.61,0,0,0-.52-.08,22.89,22.89,0,0,1-2.44.6l-.77.14a.37.37,0,0,0-.25.13.12.12,0,0,0,0,.13.48.48,0,0,0,.47.14l.81-.15c.88-.18,1.73-.39,2.54-.63a.37.37,0,0,0,.18-.11.12.12,0,0,0,0-.17"/><path class="cls-15" d="M37.55,7.06A.64.64,0,0,0,37,7a.27.27,0,0,0-.14.1.14.14,0,0,0,0,.19c.17.12.32.25.48.38a9.85,9.85,0,0,1,1.19,1.24.54.54,0,0,0,.5.1.35.35,0,0,0,.22-.12.12.12,0,0,0,0-.15,9.43,9.43,0,0,0-1.25-1.29l-.5-.4"/><path class="cls-16" d="M7.22,16.16a.54.54,0,0,0,.5.11.36.36,0,0,0,.22-.13.11.11,0,0,0,0-.14,6.35,6.35,0,0,1-1-1.78c0-.11-.24-.18-.45-.16a.4.4,0,0,0-.29.14.09.09,0,0,0,0,.1,6.28,6.28,0,0,0,1,1.86"/><path class="cls-17" d="M11.88,5.77a.64.64,0,0,0,.54,0,20.94,20.94,0,0,1,2.86-1.07.32.32,0,0,0,.17-.12.11.11,0,0,0,0-.16.57.57,0,0,0-.52-.08,21.55,21.55,0,0,0-3,1.13.24.24,0,0,0-.11.08.15.15,0,0,0,.07.21"/><path class="cls-18" d="M18,3.83a.51.51,0,0,0,.48.14A29.09,29.09,0,0,1,21.9,3.6a.46.46,0,0,0,.33-.14.29.29,0,0,0,0-.09c0-.11-.21-.19-.42-.18a29.53,29.53,0,0,0-3.57.39.37.37,0,0,0-.25.13.11.11,0,0,0,0,.12"/><path class="cls-19" d="M11.33,19.32a.64.64,0,0,0,.54,0,.15.15,0,0,0,.08-.08c.05-.07,0-.16-.09-.21a13.46,13.46,0,0,1-2.27-1.4.64.64,0,0,0-.53-.05.27.27,0,0,0-.14.1c0,.06,0,.13.05.19a13.74,13.74,0,0,0,2.36,1.46"/><path class="cls-20" d="M40.35,10.61c0-.11-.24-.18-.45-.16a.42.42,0,0,0-.29.14.09.09,0,0,0,0,.1,5.15,5.15,0,0,1,.29,1.85c0,.12.16.21.37.21a.46.46,0,0,0,.37-.14.14.14,0,0,0,0-.06,5.15,5.15,0,0,0-.3-1.94"/><path class="cls-21" d="M37,17.72a.63.63,0,0,0-.54,0,14.27,14.27,0,0,1-2.38,1.37.35.35,0,0,0-.11.09.14.14,0,0,0,.07.2.6.6,0,0,0,.54,0A16.41,16.41,0,0,0,37.11,18l.06-.06c0-.08,0-.18-.13-.23"/><path class="cls-22" d="M25.06,21.51c0-.11-.2-.19-.41-.18l-.88,0c-.86,0-1.72,0-2.59-.05a.46.46,0,0,0-.41.14l0,0c0,.11.12.21.33.23.91.05,1.82.07,2.71.05l.93,0A.42.42,0,0,0,25,21.6a.1.1,0,0,0,0-.09"/><path class="cls-23" d="M32.29,4.44a.6.6,0,0,0-.53.07l0,0c-.06.09,0,.19.16.24A20.54,20.54,0,0,1,34,5.61l.62.29a.64.64,0,0,0,.54,0,.29.29,0,0,0,.08-.07c0-.08,0-.16-.1-.22l-.64-.31a21.09,21.09,0,0,0-2.25-.85"/><path class="cls-24" d="M5.88,12.37c0,.11.16.2.37.2a.43.43,0,0,0,.37-.14.14.14,0,0,0,0-.06A4.71,4.71,0,0,1,6.92,11a2.65,2.65,0,0,1,.17-.44c0-.11-.08-.22-.29-.24a.49.49,0,0,0-.45.13v0l-.18.46a5.16,5.16,0,0,0-.28,1.48"/><path class="cls-25" d="M7.73,8.86a.57.57,0,0,0,.51-.1c.12-.14.25-.28.38-.41A9.83,9.83,0,0,1,10,7.16l.05-.06c.06-.08,0-.18-.12-.23a.63.63,0,0,0-.54,0A10.83,10.83,0,0,0,8,8.16c-.14.14-.28.28-.41.43v0c-.07.1,0,.21.2.25"/><path class="cls-26" d="M14.22,20.48a26.83,26.83,0,0,0,3.29.81h0a.52.52,0,0,0,.48-.12c.07-.11,0-.23-.23-.26h0a24.45,24.45,0,0,1-3.14-.77.6.6,0,0,0-.53.07l0,0c-.06.09,0,.19.16.24"/><path class="cls-27" d="M25,3.39c0,.11.12.21.33.22A29.69,29.69,0,0,1,28.75,4a.51.51,0,0,0,.49-.13c.07-.11,0-.22-.24-.26a30.07,30.07,0,0,0-3.53-.42.48.48,0,0,0-.41.13s0,0,0,.05"/><path class="cls-28" d="M40.19,14.48c.05-.11-.08-.22-.28-.24a.47.47,0,0,0-.45.13v0a6.27,6.27,0,0,1-.5.91,7.47,7.47,0,0,1-.65.86v0c-.07.1,0,.21.19.25a.57.57,0,0,0,.51-.1,7.79,7.79,0,0,0,.68-.89,6.46,6.46,0,0,0,.52-1"/><path class="cls-29" d="M38.44,15.21a8.85,8.85,0,0,1-1,1.24c-1.93,1.93-5.1,3.37-8.78,4.09a28.72,28.72,0,0,1-4.9.53,29.17,29.17,0,0,1-5.81-.44,22.13,22.13,0,0,1-5.11-1.54,13.15,13.15,0,0,1-3.24-2c-2-1.77-2.88-3.93-2.14-6.08a6,6,0,0,1,.64-1.3,7.67,7.67,0,0,1,1-1.23C11,6.54,14.2,5.11,17.87,4.39a28,28,0,0,1,4.9-.54,29.28,29.28,0,0,1,5.82.45,22.05,22.05,0,0,1,5.1,1.53,13.54,13.54,0,0,1,3.25,2c2.05,1.76,2.88,3.92,2.14,6.07A5.8,5.8,0,0,1,38.44,15.21Z"/><path class="cls-30" d="M0,13.05s0,.23.1.64a7.61,7.61,0,0,0,.55,1.72A10.17,10.17,0,0,0,2.2,17.72,14.48,14.48,0,0,0,4.91,20a20,20,0,0,0,3.68,2c.7.27,1.41.57,2.15.79.37.11.74.25,1.13.35l1.16.31.59.16.6.12,1.21.25c.81.14,1.67.27,2.51.37l1.26.13.64.06.64,0,1.29.06c.43,0,.87,0,1.3,0,.86,0,1.72,0,2.58-.07.43,0,.86-.06,1.28-.1l.64-.05.63-.08a38.55,38.55,0,0,0,4.92-.91l1.16-.32.57-.16.56-.19,1.1-.37c.36-.13.7-.28,1.05-.42a21,21,0,0,0,2-.92,10,10,0,0,0,.91-.5c.29-.18.58-.34.85-.52a16.35,16.35,0,0,0,2.76-2.28,10.49,10.49,0,0,0,1.64-2.25c.16-.35.3-.67.42-1s.18-.53.23-.74c.08-.41.13-.63.13-.63l-.1.64c0,.21-.12.46-.2.75s-.24.62-.39,1a11.07,11.07,0,0,1-1.58,2.34A14.21,14.21,0,0,1,43,19.11a6.07,6.07,0,0,1-.73.59l-.78.59-.86.54c-.3.18-.59.38-.91.54-.63.32-1.28.69-2,1-.35.15-.7.31-1.06.45l-1.11.4-.56.2-.58.17-1.18.34a38.52,38.52,0,0,1-5,1l-.64.09L27,25l-1.3.11c-.86,0-1.73.1-2.61.08-.43,0-.87,0-1.3,0l-1.31-.07-.65,0L19.15,25l-1.29-.13c-.85-.12-1.68-.25-2.51-.4l-1.23-.26-.61-.13-.6-.16-1.17-.32c-.39-.11-.77-.26-1.14-.38-.76-.25-1.46-.56-2.15-.85a20.6,20.6,0,0,1-3.72-2.09,14.23,14.23,0,0,1-2.68-2.43,10.23,10.23,0,0,1-1.49-2.4A7.9,7.9,0,0,1,.08,13.7Z"/><text class="cls-31" transform="translate(17.73 15.71) rotate(4.36)">10</text></g></g></g></svg>